<?xml version="1.0" encoding="utf-8"?>
<!-- Generator: Adobe Illustrator 27.0.0, SVG Export Plug-In . SVG Version: 6.00 Build 0)  -->
<svg version="1.1" id="Layer_1" xmlns="http://www.w3.org/2000/svg" xmlns:xlink="http://www.w3.org/1999/xlink" x="0px" y="0px"
	 viewBox="0 0 595.3 447.8" style="enable-background:new 0 0 595.3 447.8;" xml:space="preserve">
<style type="text/css">
	.st0{fill:#1D71B8;}
	.st1{fill-rule:evenodd;clip-rule:evenodd;fill:#1D71B8;}
</style>
<g>
	<path d="M104.3,395.9H89.3l-16.4-26.3l-5.6,4v22.3H54.1v-62.5h13.3V362l5.2-7.4l16.9-21.3h14.7l-21.8,27.7L104.3,395.9z"/>
	<path d="M142.9,395.9l-1.8-6.1h-0.7c-1.4,2.2-3.4,3.9-5.9,5.2c-2.6,1.2-5.5,1.8-8.8,1.8c-5.6,0-9.9-1.5-12.7-4.5
		c-2.9-3-4.3-7.3-4.3-13v-31.2h13V376c0,3.5,0.6,6,1.8,7.8c1.2,1.7,3.2,2.6,5.9,2.6c3.6,0,6.3-1.2,7.9-3.7c1.6-2.4,2.4-6.5,2.4-12.1
		v-22.5h13v47.8H142.9z"/>
	<path d="M191,347.2c5.6,0,10.1,2.2,13.3,6.6s4.8,10.4,4.8,18.1c0,7.9-1.6,14-4.9,18.3s-7.8,6.5-13.5,6.5c-5.6,0-10-2-13.2-6.1h-0.9
		l-2.2,5.3h-10v-66.5h13v15.5c0,2-0.2,5.1-0.5,9.5h0.5C180.5,349.6,185,347.2,191,347.2z M186.8,357.6c-3.2,0-5.6,1-7.1,3
		c-1.5,2-2.3,5.3-2.3,9.8v1.4c0,5.1,0.8,8.8,2.3,11c1.5,2.2,3.9,3.3,7.2,3.3c2.7,0,4.8-1.2,6.4-3.7c1.6-2.5,2.4-6.1,2.4-10.8
		s-0.8-8.2-2.4-10.6C191.7,358.8,189.6,357.6,186.8,357.6z"/>
	<path d="M239.3,396.8c-7.7,0-13.7-2.1-18-6.4c-4.3-4.2-6.5-10.3-6.5-18c0-8,2-14.2,6-18.6c4-4.4,9.5-6.6,16.6-6.6
		c6.8,0,12,1.9,15.8,5.8c3.8,3.8,5.6,9.2,5.6,16v6.3h-30.8c0.1,3.7,1.2,6.6,3.3,8.7c2.1,2.1,4.9,3.1,8.6,3.1c2.9,0,5.6-0.3,8.2-0.9
		c2.6-0.6,5.2-1.6,8-2.9v10.1c-2.3,1.1-4.7,2-7.3,2.5C246.2,396.5,243,396.8,239.3,396.8z M237.4,356.5c-2.8,0-4.9,0.9-6.5,2.6
		c-1.6,1.8-2.5,4.2-2.7,7.5h18.3c-0.1-3.2-0.9-5.7-2.5-7.5C242.4,357.4,240.2,356.5,237.4,356.5z"/>
	<path d="M292.3,395.9h-13.3v-51.5h-17v-11h47.2v11h-17V395.9z"/>
	<path d="M349.6,395.9l-1.8-6.1h-0.7c-1.4,2.2-3.4,3.9-5.9,5.2c-2.6,1.2-5.5,1.8-8.8,1.8c-5.6,0-9.9-1.5-12.7-4.5
		c-2.9-3-4.3-7.3-4.3-13v-31.2h13V376c0,3.5,0.6,6,1.8,7.8c1.2,1.7,3.2,2.6,5.9,2.6c3.6,0,6.3-1.2,7.9-3.7c1.6-2.4,2.4-6.5,2.4-12.1
		v-22.5h13v47.8H349.6z"/>
	<path d="M415.2,395.9h-13V368c0-3.4-0.6-6-1.8-7.8c-1.2-1.7-3.2-2.6-5.9-2.6c-3.7,0-6.3,1.2-7.9,3.7c-1.6,2.4-2.4,6.5-2.4,12.1
		v22.5h-13v-47.8h10l1.8,6.1h0.7c1.5-2.3,3.5-4.1,6-5.2c2.6-1.2,5.5-1.8,8.7-1.8c5.6,0,9.8,1.5,12.7,4.5c2.9,3,4.3,7.3,4.3,13V395.9
		z"/>
	<path d="M470.6,395.9h-13V368c0-3.4-0.6-6-1.8-7.8c-1.2-1.7-3.2-2.6-5.9-2.6c-3.7,0-6.3,1.2-7.9,3.7c-1.6,2.4-2.4,6.5-2.4,12.1
		v22.5h-13v-47.8h10l1.8,6.1h0.7c1.5-2.3,3.5-4.1,6-5.2c2.6-1.2,5.5-1.8,8.7-1.8c5.6,0,9.8,1.5,12.7,4.5c2.9,3,4.3,7.3,4.3,13V395.9
		z"/>
	<path d="M503.5,396.8c-7.7,0-13.7-2.1-18-6.4c-4.3-4.2-6.5-10.3-6.5-18c0-8,2-14.2,6-18.6c4-4.4,9.5-6.6,16.6-6.6
		c6.8,0,12,1.9,15.8,5.8c3.8,3.8,5.6,9.2,5.6,16v6.3h-30.8c0.1,3.7,1.2,6.6,3.3,8.7s4.9,3.1,8.6,3.1c2.9,0,5.6-0.3,8.2-0.9
		s5.2-1.6,8-2.9v10.1c-2.3,1.1-4.7,2-7.3,2.5C510.4,396.5,507.2,396.8,503.5,396.8z M501.6,356.5c-2.8,0-4.9,0.9-6.5,2.6
		c-1.6,1.8-2.5,4.2-2.7,7.5h18.3c-0.1-3.2-0.9-5.7-2.5-7.5C506.6,357.4,504.4,356.5,501.6,356.5z"/>
	<path d="M544.4,395.9h-13v-66.5h13V395.9z"/>
</g>
<g>
	<path class="st0" d="M297.6,42.2c34.1,0,65,13.9,87.4,36.4c22.4,22.4,36.4,53.4,36.4,87.4v102.9h-32.8V166
		c0-25-10.2-47.7-26.7-64.2c-16.5-16.5-39.2-26.7-64.2-26.7c-25,0-47.7,10.2-64.2,26.7c-16.5,16.5-26.7,39.2-26.7,64.2v102.9h-32.8
		V166c0-34.1,13.9-65,36.4-87.4C232.6,56.2,263.6,42.2,297.6,42.2z"/>
	<path class="st1" d="M236.7,268.9h121.9v-82.8c0-20.1-6.9-38.4-17.9-51.7c-11.1-13.3-26.3-21.5-43-21.5c-16.8,0-32,8.2-43,21.5
		c-11.1,13.3-17.9,31.6-17.9,51.7V268.9z"/>
</g>
</svg>
